<?xml version="1.0" standalone="no"?>
<!DOCTYPE svg PUBLIC "-//W3C//DTD SVG 20010904//EN"
 "http://www.w3.org/TR/2001/REC-SVG-20010904/DTD/svg10.dtd">
<svg version="1.0" xmlns="http://www.w3.org/2000/svg"
 width="700.000000pt" height="700.000000pt" viewBox="0 0 700.000000 700.000000"
 preserveAspectRatio="xMidYMid meet">
<metadata>
Created by potrace 1.11, written by Peter Selinger 2001-2013
</metadata>
<g transform="translate(0.000000,700.000000) scale(0.100000,-0.100000)"
fill="#000000" stroke="none">
<path d="M3397 6980 c-103 -26 -211 -89 -310 -181 -99 -91 -233 -310 -326
-529 -12 -30 -27 -64 -31 -75 -11 -25 -80 -225 -85 -245 -3 -13 -45 -157 -61
-211 -4 -14 -23 -6 -112 43 -302 169 -593 284 -827 326 -180 33 -373 12 -498
-55 -78 -42 -168 -136 -206 -216 -70 -148 -83 -339 -37 -547 47 -208 166 -499
314 -762 l60 -108 -42 -11 c-448 -120 -843 -305 -1015 -477 -233 -232 -272
-477 -114 -725 155 -243 537 -453 1115 -612 l56 -16 -60 -107 c-225 -402 -349
-770 -342 -1017 14 -496 397 -694 985 -509 176 55 423 166 624 278 44 25 85
45 90 46 6 0 16 -26 24 -57 21 -91 97 -320 146 -443 148 -366 311 -586 521
-702 48 -27 174 -58 234 -58 195 1 402 136 550 361 129 194 247 473 343 809
29 99 31 100 123 45 191 -116 567 -274 745 -314 129 -29 198 -37 284 -35 261
8 437 113 528 315 55 122 66 338 26 508 -16 67 -49 183 -58 206 -5 11 -26 65
-47 120 -48 128 -130 300 -206 438 -33 60 -57 112 -52 116 5 5 38 16 74 25
402 109 789 291 956 452 400 383 253 832 -366 1122 -58 27 -127 59 -155 72
-51 23 -364 127 -467 155 l-56 16 63 112 c159 286 280 588 320 802 47 250 3
476 -120 613 -110 123 -267 179 -489 175 -243 -4 -658 -156 -1043 -383 l-32
-19 -16 57 c-190 681 -430 1065 -740 1182 -68 25 -206 35 -268 20z m208 -244
c115 -35 265 -154 367 -291 89 -120 193 -309 263 -481 29 -70 105 -280 105
-290 0 -1 -35 -24 -77 -50 -201 -124 -620 -427 -727 -526 l-30 -27 -30 22
c-17 11 -62 46 -101 77 -101 82 -325 246 -435 320 -52 35 -97 66 -100 69 -3 4
-37 26 -76 49 -117 70 -110 53 -71 167 19 55 43 120 54 145 11 25 24 56 28 70
12 39 102 216 158 310 149 249 321 404 494 444 64 14 111 12 178 -8z m-1842
-821 c15 -3 37 -7 50 -9 179 -32 453 -129 659 -232 87 -43 87 -44 78 -74 -5
-17 -9 -34 -9 -38 0 -4 -7 -36 -15 -72 -8 -36 -26 -126 -40 -200 -34 -183 -34
-183 -35 -201 -1 -13 -33 -1 -148 56 -362 179 -574 247 -614 198 -34 -40 -7
-358 60 -703 12 -57 18 -107 13 -111 -6 -5 -76 -20 -202 -43 -14 -2 -62 -13
-108 -24 l-83 -20 -43 87 c-82 163 -180 424 -210 561 -35 155 -44 227 -41 338
3 155 41 278 110 360 51 60 172 116 288 132 61 8 235 5 290 -5z m3812 -4 c93
-21 177 -61 226 -108 47 -44 96 -149 115 -248 10 -57 13 -227 4 -277 -5 -24
-10 -61 -13 -83 -20 -150 -130 -461 -238 -677 l-38 -76 -53 13 c-29 8 -64 16
-78 19 -14 2 -76 14 -138 27 l-114 22 6 50 c4 27 8 52 10 56 2 3 7 27 10 53 4
26 8 53 11 60 4 13 9 47 20 133 4 28 10 77 15 110 13 92 8 249 -9 268 -42 51
-246 -17 -633 -209 -59 -29 -110 -49 -112 -45 -5 8 -9 26 -21 111 -11 78 -14
92 -40 225 -13 72 -33 167 -44 213 l-19 83 76 38 c110 55 261 118 377 158 117
40 331 90 395 92 24 1 47 5 50 8 7 7 186 -5 235 -16z m-2837 -377 c120 -69
309 -189 422 -268 142 -99 300 -218 300 -225 0 -15 -50 -34 -97 -36 -158 -10
-429 -74 -523 -124 -10 -6 -36 3 -75 24 -33 18 -105 56 -160 85 -55 29 -101
54 -103 55 -1 1 12 64 29 140 17 76 32 146 34 156 2 10 13 51 24 91 11 40 25
92 31 116 6 23 13 42 15 42 3 0 49 -25 103 -56z m1632 51 c0 -2 14 -55 31
-117 34 -128 94 -390 103 -460 l7 -46 -122 -66 c-68 -36 -129 -66 -136 -66 -8
0 -37 12 -66 26 -132 67 -386 135 -557 149 -53 4 -54 5 -75 21 -21 16 -23 12
50 72 110 89 450 315 644 429 103 60 121 68 121 58z m-2571 -1187 c7 -35 35
-161 63 -281 41 -181 48 -223 39 -245 -6 -15 -21 -64 -34 -109 l-22 -82 -55
80 c-30 44 -69 99 -86 122 -73 100 -300 475 -291 483 3 3 275 77 322 87 48 11
51 9 64 -55z m3581 26 c52 -14 102 -26 110 -28 53 -13 100 -27 100 -31 0 -9
-124 -221 -190 -324 -73 -115 -232 -346 -255 -369 -10 -11 -16 2 -33 70 l-21
83 20 85 c11 47 22 92 24 100 1 8 8 33 14 55 5 22 13 55 16 72 3 18 12 63 21
100 17 74 17 71 34 160 14 72 -5 69 160 27z m-4004 -161 c53 -86 200 -303 252
-373 19 -25 43 -58 55 -74 12 -16 51 -68 88 -115 64 -85 65 -86 57 -131 -8
-43 -16 -122 -17 -185 -1 -23 -29 -69 -109 -175 -98 -131 -293 -415 -352 -513
-12 -21 -27 -36 -34 -34 -6 2 -42 14 -81 26 -38 13 -83 29 -100 36 -16 7 -64
27 -105 43 -157 63 -345 165 -470 256 -80 58 -200 183 -240 251 -101 170 -97
302 13 469 119 179 358 346 697 489 84 35 274 104 291 106 4 1 29 -34 55 -76z
m4400 43 c689 -237 1075 -611 955 -927 -89 -235 -366 -451 -802 -627 -157 -64
-251 -94 -259 -85 -17 19 -100 155 -100 162 0 5 -3 11 -8 13 -4 2 -36 46 -71
98 -65 96 -161 231 -171 240 -3 3 -30 39 -60 80 -30 41 -63 84 -73 95 -20 22
-22 29 -34 145 l-10 85 142 190 c145 194 281 391 349 503 20 34 38 62 40 62 1
0 47 -15 102 -34z m-550 -1088 c32 -46 73 -104 91 -130 18 -26 33 -52 33 -57
0 -5 3 -11 8 -13 13 -5 232 -367 232 -383 0 -3 -207 -61 -246 -70 -10 -2 -73
-15 -139 -30 -66 -15 -152 -32 -192 -39 l-71 -13 48 96 c99 199 167 462 171
669 1 28 3 52 4 52 2 0 29 -37 61 -82z m-3411 -28 c3 -36 8 -76 10 -90 2 -14
7 -45 10 -70 17 -123 87 -334 153 -463 l40 -78 -32 5 c-17 3 -63 12 -101 20
-39 8 -82 17 -95 19 -81 15 -379 94 -388 102 -5 4 101 187 179 310 80 125 211
316 215 312 2 -1 6 -32 9 -67z m-335 -658 c47 -11 101 -22 120 -26 19 -3 46
-8 60 -11 96 -19 184 -35 221 -40 24 -3 53 -8 64 -10 11 -1 43 -6 70 -10 49
-7 51 -9 107 -89 80 -113 160 -201 262 -291 57 -51 54 -43 72 -180 3 -22 14
-83 24 -135 10 -52 21 -113 26 -135 4 -22 8 -44 10 -50 1 -5 5 -23 8 -40 3
-16 12 -53 20 -81 7 -29 11 -56 7 -62 -8 -12 -140 -78 -251 -125 -180 -76
-412 -145 -552 -164 -64 -9 -240 -10 -288 -1 -231 39 -339 149 -379 388 -10
60 -8 234 4 290 3 14 8 41 11 60 24 137 91 343 168 516 83 189 100 222 116
219 8 -2 53 -12 100 -23z m4208 -90 c98 -209 155 -363 196 -534 35 -146 41
-195 40 -328 -3 -345 -157 -500 -504 -504 -103 -1 -210 8 -243 19 -7 3 -23 6
-37 9 -81 14 -292 81 -410 130 -127 53 -280 130 -281 140 -2 19 3 48 25 136 8
36 18 81 21 100 3 19 14 78 25 130 10 52 21 115 25 140 3 25 8 54 10 65 2 11
4 32 4 48 1 21 25 52 107 135 58 59 133 145 167 192 33 47 63 89 67 93 4 4 99
23 211 42 191 32 405 74 474 93 17 5 35 7 41 5 6 -2 34 -52 62 -111z m-1223
-641 c-35 -161 -91 -380 -98 -388 -6 -5 -198 105 -317 182 -52 34 -106 67
-118 74 -13 7 -21 15 -19 18 3 2 54 21 114 42 135 47 273 115 383 189 47 31
86 54 88 51 2 -4 -13 -79 -33 -168z m-1860 89 c133 -82 266 -141 413 -184 l73
-22 -118 -74 c-104 -66 -331 -200 -338 -200 -3 0 -63 214 -69 246 -2 11 -15
71 -30 134 -38 175 -38 175 -18 157 9 -8 49 -34 87 -57z m621 -231 c151 -28
356 -27 536 2 l68 11 82 -60 c71 -51 363 -247 412 -277 16 -9 15 -17 -10 -90
-14 -44 -32 -93 -39 -110 -7 -16 -27 -66 -45 -110 -191 -473 -475 -775 -729
-776 -171 -1 -360 136 -522 376 -62 93 -156 272 -207 395 -33 79 -112 294
-112 305 0 2 35 25 78 51 91 57 271 178 362 246 36 26 65 47 66 48 0 0 27 -5
60 -11z"/>
</g>
</svg>
